<svg width="19" height="20" viewBox="0 0 19 20" fill="none" xmlns="http://www.w3.org/2000/svg">
<path d="M18.7125 14.9156C18.5467 16.1816 17.9267 17.3443 16.9679 18.1876C16.0092 19.0308 14.7768 19.4972 13.5 19.5C6.05625 19.5 0 13.4438 0 6.00001C0.00281471 4.72319 0.469194 3.49083 1.31243 2.53206C2.15566 1.57329 3.31837 0.953355 4.58437 0.787507C4.90711 0.751724 5.23284 0.819672 5.51435 0.981498C5.79586 1.14332 6.01851 1.39061 6.15 1.68751L8.03437 6.08438C8.13212 6.31261 8.17131 6.56163 8.14839 6.80885C8.12547 7.05607 8.04116 7.29364 7.90312 7.50001L6.34687 9.88126C7.05158 11.3114 8.21273 12.466 9.64687 13.1625L12 11.5969C12.2061 11.4579 12.4443 11.3738 12.692 11.3525C12.9397 11.3312 13.1888 11.3733 13.4156 11.475L17.8125 13.35C18.1094 13.4815 18.3567 13.7041 18.5185 13.9857C18.6803 14.2672 18.7483 14.5929 18.7125 14.9156ZM11.7562 2.97188C12.8979 3.28377 13.9384 3.88794 14.7752 4.72477C15.6121 5.56159 16.2162 6.60215 16.5281 7.74376C16.5695 7.90404 16.6627 8.04612 16.7933 8.14787C16.9239 8.24962 17.0845 8.30531 17.25 8.30626C17.3166 8.30613 17.3829 8.29667 17.4469 8.27813C17.5422 8.25319 17.6316 8.20946 17.7098 8.14953C17.7881 8.08959 17.8535 8.01465 17.9024 7.92908C17.9513 7.84352 17.9827 7.74905 17.9946 7.65123C18.0065 7.55341 17.9988 7.45419 17.9719 7.35938C17.5969 5.96128 16.8607 4.68644 15.8371 3.66289C14.8136 2.63934 13.5387 1.90311 12.1406 1.52813C12.0428 1.49249 11.9386 1.47761 11.8347 1.48444C11.7308 1.49127 11.6295 1.51965 11.5372 1.56779C11.4448 1.61593 11.3635 1.68277 11.2985 1.76404C11.2334 1.84532 11.1859 1.93925 11.1591 2.03987C11.1324 2.14049 11.1268 2.24558 11.1429 2.34846C11.1589 2.45133 11.1962 2.54974 11.2524 2.63741C11.3086 2.72508 11.3824 2.8001 11.4691 2.85769C11.5559 2.91527 11.6536 2.95416 11.7562 2.97188ZM10.9781 5.86876C11.6127 6.04246 12.1911 6.37848 12.6563 6.8437C13.1215 7.30892 13.4575 7.8873 13.6312 8.52188C13.6712 8.68296 13.764 8.82597 13.8949 8.92797C14.0258 9.02997 14.1872 9.08505 14.3531 9.08438C14.4167 9.085 14.48 9.07551 14.5406 9.05626C14.6368 9.03234 14.7272 8.98936 14.8065 8.92986C14.8857 8.87037 14.9523 8.79556 15.0021 8.70989C15.0519 8.62421 15.0841 8.52941 15.0966 8.43109C15.1091 8.33277 15.1018 8.23294 15.075 8.13751C14.8382 7.24642 14.3702 6.43374 13.7182 5.78179C13.0663 5.12983 12.2536 4.66177 11.3625 4.42501C11.2647 4.38937 11.1605 4.37449 11.0566 4.38131C10.9527 4.38814 10.8514 4.41653 10.759 4.46467C10.6667 4.51281 10.5854 4.57964 10.5203 4.66092C10.4553 4.74219 10.4078 4.83613 10.381 4.93675C10.3542 5.03736 10.3487 5.14246 10.3647 5.24533C10.3808 5.34821 10.4181 5.44662 10.4743 5.53429C10.5304 5.62196 10.6042 5.69698 10.691 5.75456C10.7777 5.81214 10.8755 5.85104 10.9781 5.86876Z" fill="#8A91A8"/>
</svg>
