<svg width="19" height="20" viewBox="0 0 19 20" fill="none" xmlns="http://www.w3.org/2000/svg">
<path d="M9.375 0.75C6.89012 0.754955 4.50843 1.74427 2.75135 3.50135C0.994266 5.25843 0.00495491 7.64012 0 10.125V18.0281C0 18.4185 0.155072 18.7929 0.431102 19.0689C0.707132 19.3449 1.08151 19.5 1.47188 19.5H9.375C11.8614 19.5 14.246 18.5123 16.0041 16.7541C17.7623 14.996 18.75 12.6114 18.75 10.125C18.75 7.6386 17.7623 5.25403 16.0041 3.49587C14.246 1.73772 11.8614 0.75 9.375 0.75ZM4.875 11.625C4.6525 11.625 4.43499 11.559 4.24998 11.4354C4.06498 11.3118 3.92078 11.1361 3.83564 10.9305C3.75049 10.725 3.72821 10.4988 3.77162 10.2805C3.81502 10.0623 3.92217 9.86184 4.0795 9.7045C4.23684 9.54717 4.43729 9.44002 4.65552 9.39662C4.87375 9.35321 5.09995 9.37549 5.30552 9.46064C5.51109 9.54578 5.68679 9.68998 5.8104 9.87498C5.93402 10.06 6 10.2775 6 10.5C6 10.7984 5.88147 11.0845 5.6705 11.2955C5.45952 11.5065 5.17337 11.625 4.875 11.625ZM9.375 11.625C9.1525 11.625 8.93499 11.559 8.74998 11.4354C8.56498 11.3118 8.42078 11.1361 8.33564 10.9305C8.25049 10.725 8.22821 10.4988 8.27162 10.2805C8.31502 10.0623 8.42217 9.86184 8.5795 9.7045C8.73684 9.54717 8.93729 9.44002 9.15552 9.39662C9.37375 9.35321 9.59995 9.37549 9.80552 9.46064C10.0111 9.54578 10.1868 9.68998 10.3104 9.87498C10.434 10.06 10.5 10.2775 10.5 10.5C10.5 10.7984 10.3815 11.0845 10.1705 11.2955C9.95952 11.5065 9.67337 11.625 9.375 11.625ZM13.875 11.625C13.6525 11.625 13.435 11.559 13.25 11.4354C13.065 11.3118 12.9208 11.1361 12.8356 10.9305C12.7505 10.725 12.7282 10.4988 12.7716 10.2805C12.815 10.0623 12.9222 9.86184 13.0795 9.7045C13.2368 9.54717 13.4373 9.44002 13.6555 9.39662C13.8738 9.35321 14.1 9.37549 14.3055 9.46064C14.5111 9.54578 14.6868 9.68998 14.8104 9.87498C14.934 10.06 15 10.2775 15 10.5C15 10.7984 14.8815 11.0845 14.6705 11.2955C14.4595 11.5065 14.1734 11.625 13.875 11.625Z" fill="black"/>
</svg>
