<svg width="20" height="20" viewBox="0 0 20 20" fill="none" xmlns="http://www.w3.org/2000/svg">
<path d="M19.7406 19.125C19.6765 19.24 19.5826 19.3355 19.4687 19.4015C19.3549 19.4675 19.2253 19.5015 19.0937 19.5H0.906217C0.774628 19.5015 0.645077 19.4675 0.531226 19.4015C0.417376 19.3355 0.323446 19.24 0.259343 19.125C0.190635 19.012 0.154297 18.8823 0.154297 18.75C0.154297 18.6178 0.190635 18.4881 0.259343 18.375C1.65878 15.9643 3.89881 14.1549 6.54997 13.2938C5.2792 12.5381 4.29169 11.3862 3.73912 10.0148C3.18656 8.6435 3.09951 7.12868 3.49135 5.70309C3.88319 4.2775 4.73225 3.01998 5.90809 2.12373C7.08393 1.22748 8.5215 0.742065 9.99997 0.742065C11.4784 0.742065 12.916 1.22748 14.0918 2.12373C15.2677 3.01998 16.1167 4.2775 16.5086 5.70309C16.9004 7.12868 16.8134 8.6435 16.2608 10.0148C15.7082 11.3862 14.7207 12.5381 13.45 13.2938C16.1011 14.1549 18.3412 15.9643 19.7406 18.375C19.8093 18.4881 19.8456 18.6178 19.8456 18.75C19.8456 18.8823 19.8093 19.012 19.7406 19.125Z" fill="#8A91A8"/>
</svg>
