<svg width="20" height="21" viewBox="0 0 20 21" fill="none" xmlns="http://www.w3.org/2000/svg">
<path d="M14.4999 9.37502C14.4999 10.4875 14.17 11.5751 13.5519 12.5001C12.9338 13.4251 12.0553 14.1461 11.0275 14.5718C9.99966 14.9976 8.86866 15.109 7.77752 14.8919C6.68638 14.6749 5.6841 14.1392 4.89743 13.3525C4.11076 12.5658 3.57503 11.5635 3.35798 10.4724C3.14094 9.38126 3.25234 8.25026 3.67808 7.22243C4.10382 6.19459 4.82479 5.31609 5.74982 4.69801C6.67485 4.07992 7.76238 3.75002 8.8749 3.75002C10.3667 3.75002 11.7975 4.34266 12.8524 5.39755C13.9073 6.45244 14.4999 7.88318 14.4999 9.37502ZM19.5343 20.0344C19.3909 20.173 19.1993 20.2505 18.9999 20.2505C18.8005 20.2505 18.6089 20.173 18.4655 20.0344L14.4155 15.975C12.7098 17.4077 10.5169 18.1266 8.29403 17.9817C6.07118 17.8369 3.99008 16.8394 2.48476 15.1975C0.979436 13.5555 0.16612 11.3958 0.214438 9.16878C0.262757 6.94175 1.16898 4.81934 2.7441 3.24422C4.31922 1.6691 6.44163 0.762879 8.66866 0.71456C10.8957 0.666242 13.0554 1.47956 14.6974 2.98488C16.3393 4.4902 17.3367 6.57131 17.4816 8.79415C17.6265 11.017 16.9076 13.2099 15.4749 14.9156L19.5343 18.9656C19.6751 19.1078 19.7541 19.2999 19.7541 19.5C19.7541 19.7002 19.6751 19.8922 19.5343 20.0344ZM8.8749 16.5C10.2841 16.5 11.6616 16.0822 12.8333 15.2992C14.005 14.5163 14.9183 13.4036 15.4575 12.1016C15.9968 10.7997 16.1379 9.36712 15.863 7.985C15.5881 6.60289 14.9095 5.33334 13.913 4.33689C12.9166 3.34044 11.647 2.66185 10.2649 2.38693C8.8828 2.11201 7.45021 2.25311 6.14828 2.79238C4.84636 3.33166 3.73359 4.24489 2.95068 5.41659C2.16778 6.58829 1.7499 7.96583 1.7499 9.37502C1.75238 11.2639 2.50385 13.0748 3.83951 14.4104C5.17516 15.7461 6.986 16.4975 8.8749 16.5Z" fill="#8A91A8"/>
</svg>
